<?xml version="1.0" encoding="UTF-8" standalone="no"?>
<!-- Created with Inkscape (http://www.inkscape.org/) -->

<svg
   xmlns:dc="http://purl.org/dc/elements/1.1/"
   xmlns:cc="http://creativecommons.org/ns#"
   xmlns:rdf="http://www.w3.org/1999/02/22-rdf-syntax-ns#"
   xmlns:svg="http://www.w3.org/2000/svg"
   xmlns="http://www.w3.org/2000/svg"
   xmlns:sodipodi="http://sodipodi.sourceforge.net/DTD/sodipodi-0.dtd"
   xmlns:inkscape="http://www.inkscape.org/namespaces/inkscape"
   width="38.939701mm"
   height="25.714481mm"
   viewBox="0 0 137.97531 91.114309"
   id="svg2"
   version="1.1"
   inkscape:version="0.92.2 5c3e80d, 2017-08-06"
   sodipodi:docname="lattice.svg">
  <defs
     id="defs4" />
  <sodipodi:namedview
     id="base"
     pagecolor="#ffffff"
     bordercolor="#666666"
     borderopacity="1.0"
     inkscape:pageopacity="0.0"
     inkscape:pageshadow="2"
     inkscape:zoom="2.8284272"
     inkscape:cx="71.857126"
     inkscape:cy="30.339003"
     inkscape:document-units="px"
     inkscape:current-layer="layer1"
     showgrid="false"
     inkscape:snap-object-midpoints="true"
     fit-margin-top="0"
     fit-margin-left="0"
     fit-margin-right="0"
     fit-margin-bottom="0"
     inkscape:window-width="1192"
     inkscape:window-height="1037"
     inkscape:window-x="720"
     inkscape:window-y="35"
     inkscape:window-maximized="0">
    <inkscape:grid
       type="xygrid"
       id="grid4167"
       originx="-126.17783"
       originy="-804.46397" />
  </sodipodi:namedview>
  <metadata
     id="metadata7">
    <rdf:RDF>
      <cc:Work
         rdf:about="">
        <dc:format>image/svg+xml</dc:format>
        <dc:type
           rdf:resource="http://purl.org/dc/dcmitype/StillImage" />
        <dc:title></dc:title>
      </cc:Work>
    </rdf:RDF>
  </metadata>
  <g
     inkscape:label="Layer 1"
     inkscape:groupmode="layer"
     id="layer1"
     transform="translate(-126.17789,-156.78418)">
    <path
       style="fill:none;fill-opacity:1;stroke:#00e9ff;stroke-width:5;stroke-linecap:butt;stroke-linejoin:miter;stroke-miterlimit:4;stroke-dasharray:none;stroke-opacity:1"
       d="m 141.32326,171.93304 23.50516,54.375 h 60.69287 l 23.50515,-54.37501"
       id="path4544"
       inkscape:connector-curvature="0"
       sodipodi:nodetypes="cccc" />
    <path
       style="fill:#ffdb00;fill-opacity:1;stroke:#717171;stroke-width:2.72302151;stroke-opacity:1"
       d="m 185.03738,226.2224 c 0.49782,13.11084 -13.82592,23.64861 -26.19204,19.31443 -12.66402,-3.40145 -18.52068,-20.19312 -10.71151,-30.73004 6.99219,-11.09758 24.76332,-11.72691 32.52298,-1.15174 2.82181,3.53723 4.39184,8.04309 4.38057,12.56735 z"
       id="path3701"
       inkscape:connector-curvature="0" />
    <path
       inkscape:connector-curvature="0"
       id="path3704"
       d="m 245.73025,226.2224 c 0.49782,13.11084 -13.82592,23.64861 -26.19204,19.31443 -12.66402,-3.40145 -18.52068,-20.19312 -10.71151,-30.73004 6.99219,-11.09758 24.76332,-11.72691 32.52298,-1.15174 2.82181,3.53723 4.39184,8.04309 4.38057,12.56735 z"
       style="fill:#ffdb00;fill-opacity:1;stroke:#717171;stroke-width:2.72302151;stroke-opacity:1" />
    <g
       id="g4532"
       style="fill:#ff0045;fill-opacity:1;stroke:#717171;stroke-opacity:1"
       transform="matrix(1.6443945,0,0,1.6443945,-158.24873,-110.79271)">
      <g
         id="g4528"
         style="fill:#ff0045;fill-opacity:1;stroke:#717171;stroke-opacity:1">
        <path
           style="fill:#ff0045;fill-opacity:1;stroke:#717171;stroke-width:1.16057634;stroke-opacity:1"
           d="m 256.2881,171.89654 c 0.21217,5.58795 -5.89274,10.07925 -11.16329,8.23198 -5.39752,-1.44973 -7.89368,-8.60649 -4.56534,-13.09742 2.98014,-4.72989 10.55435,-4.99811 13.86159,-0.49088 1.20268,1.5076 1.87184,3.42804 1.86704,5.35632 z"
           id="path3706"
           inkscape:connector-curvature="0" />
      </g>
    </g>
    <path
       inkscape:connector-curvature="0"
       id="path3708"
       d="m 155.48683,171.87302 c 0.34889,9.1888 -9.68999,16.57427 -18.35685,13.53663 -8.87565,-2.38393 -12.98032,-14.15247 -7.50722,-21.53733 4.90053,-7.77781 17.35552,-8.21887 22.79392,-0.8072 1.97768,2.47909 3.07805,5.63705 3.07015,8.8079 z"
       style="fill:#ff0045;fill-opacity:1;stroke:#717171;stroke-width:1.90844536;stroke-opacity:1" />
  </g>
</svg>
